<svg width="26" height="26" viewBox="0 0 26 26" fill="none" xmlns="http://www.w3.org/2000/svg">
<path d="M12.1875 14.2187C11.8643 14.2187 11.5543 14.0903 11.3257 13.8618C11.0972 13.6332 10.9688 13.3232 10.9688 13V4.57031L10.206 5.33304C9.97706 5.562 9.66653 5.69062 9.34273 5.69062C9.01894 5.69062 8.70841 5.562 8.47945 5.33304C8.2505 5.10408 8.12187 4.79355 8.12187 4.46976C8.12187 4.14597 8.2505 3.83543 8.47945 3.60648L11.3232 0.762727C11.4364 0.649108 11.571 0.558956 11.7191 0.497443C11.8673 0.435931 12.0261 0.404266 12.1865 0.404266C12.3469 0.404266 12.5057 0.435931 12.6539 0.497443C12.802 0.558956 12.9365 0.649108 13.0498 0.762727L15.8935 3.60648C16.1225 3.83543 16.2511 4.14597 16.2511 4.46976C16.2511 4.79355 16.1225 5.10408 15.8935 5.33304C15.6646 5.562 15.354 5.69062 15.0302 5.69062C14.7064 5.69062 14.3959 5.562 14.167 5.33304L13.4062 4.57031V13C13.4062 13.3232 13.2778 13.6332 13.0493 13.8618C12.8207 14.0903 12.5107 14.2187 12.1875 14.2187ZM19.9062 12.3419V9.74999C19.9062 9.21127 19.6922 8.69462 19.3113 8.31368C18.9304 7.93275 18.4137 7.71874 17.875 7.71874H16.6562C16.333 7.71874 16.023 7.84715 15.7945 8.07571C15.5659 8.30427 15.4375 8.61426 15.4375 8.93749C15.4375 9.26073 15.5659 9.57072 15.7945 9.79928C16.023 10.0278 16.333 10.1562 16.6562 10.1562H17.4688V17.093C16.8493 16.7358 16.1293 16.5928 15.4204 16.6863C14.7115 16.7798 14.0532 17.1045 13.5475 17.6101C13.0418 18.1157 12.7169 18.7739 12.6233 19.4828C12.5296 20.1917 12.6724 20.9117 13.0295 21.5312C13.0406 21.5516 13.0528 21.5709 13.065 21.5902L15.3258 25.0433C15.5029 25.314 15.7803 25.5032 16.0969 25.5694C16.4136 25.6356 16.7435 25.5733 17.0143 25.3962C17.285 25.2191 17.4742 24.9417 17.5404 24.6251C17.6066 24.3084 17.5443 23.9784 17.3672 23.7077L15.1328 20.2891C15.0282 20.1006 15.0027 19.8782 15.062 19.6709C15.1214 19.4635 15.2606 19.2883 15.4492 19.1836C15.6377 19.079 15.8601 19.0535 16.0675 19.1129C16.2748 19.1722 16.45 19.3114 16.5547 19.5C16.5659 19.5203 16.578 19.5396 16.5913 19.5589L17.6719 21.2144C17.8163 21.4321 18.0269 21.5977 18.2725 21.6866C18.5182 21.7756 18.7859 21.7833 19.0363 21.7085C19.2866 21.6337 19.5063 21.4805 19.6629 21.2714C19.8196 21.0623 19.9049 20.8084 19.9062 20.5471V15.6406C20.9533 16.9188 21.5273 18.5191 21.5312 20.1713V24.375C21.5312 24.6982 21.6597 25.0082 21.8882 25.2368C22.1168 25.4653 22.4268 25.5937 22.75 25.5937C23.0732 25.5937 23.3832 25.4653 23.6118 25.2368C23.8403 25.0082 23.9688 24.6982 23.9688 24.375V20.1754C23.9642 18.6405 23.5931 17.129 22.8865 15.7665C22.1799 14.4039 21.1582 13.2298 19.9062 12.3419ZM7.71875 7.71874H6.5C5.96128 7.71874 5.44462 7.93275 5.06369 8.31368C4.68276 8.69462 4.46875 9.21127 4.46875 9.74999V20.3125C4.46875 20.6357 4.59715 20.9457 4.82571 21.1743C5.05427 21.4028 5.36427 21.5312 5.6875 21.5312C6.01073 21.5312 6.32073 21.4028 6.54929 21.1743C6.77785 20.9457 6.90625 20.6357 6.90625 20.3125V10.1562H7.71875C8.04198 10.1562 8.35198 10.0278 8.58054 9.79928C8.8091 9.57072 8.9375 9.26073 8.9375 8.93749C8.9375 8.61426 8.8091 8.30427 8.58054 8.07571C8.35198 7.84715 8.04198 7.71874 7.71875 7.71874Z" fill="#FF7900"/>
</svg>
