<svg width="46" height="46" viewBox="0 0 46 46" fill="none" xmlns="http://www.w3.org/2000/svg">
<path d="M3.83325 8.625H16.7842C17.5395 8.62491 18.2875 8.77365 18.9854 9.06273C19.6832 9.3518 20.3173 9.77555 20.8513 10.3098L26.8333 16.2917M9.58325 25.875H3.83325M16.2916 14.375L20.1249 18.2083C20.3766 18.46 20.5763 18.7588 20.7125 19.0877C20.8487 19.4166 20.9188 19.769 20.9188 20.125C20.9188 20.481 20.8487 20.8334 20.7125 21.1623C20.5763 21.4912 20.3766 21.79 20.1249 22.0417C19.8732 22.2934 19.5744 22.493 19.2455 22.6292C18.9167 22.7655 18.5642 22.8356 18.2083 22.8356C17.8523 22.8356 17.4998 22.7655 17.171 22.6292C16.8421 22.493 16.5433 22.2934 16.2916 22.0417L13.4166 19.1667C11.7683 20.815 9.15584 21.0009 7.289 19.6018L6.70825 19.1667" stroke="#FF7900" stroke-width="1.5" stroke-linecap="round" stroke-linejoin="round"/>
<path d="M9.58325 21.0833V29.7083C9.58325 33.3232 9.58325 35.1287 10.7064 36.2518C11.8296 37.375 13.6351 37.375 17.2499 37.375H34.4999C38.1148 37.375 39.9203 37.375 41.0434 36.2518C42.1666 35.1287 42.1666 33.3232 42.1666 29.7083V23.9583C42.1666 20.3435 42.1666 18.538 41.0434 17.4148C39.9203 16.2917 38.1148 16.2917 34.4999 16.2917H18.2083" stroke="#FF7900" stroke-width="1.5" stroke-linecap="round" stroke-linejoin="round"/>
<path d="M29.2291 26.8334C29.2291 27.7229 28.8757 28.5761 28.2467 29.2051C27.6176 29.8341 26.7645 30.1875 25.8749 30.1875C24.9853 30.1875 24.1322 29.8341 23.5032 29.2051C22.8741 28.5761 22.5208 27.7229 22.5208 26.8334C22.5208 25.9438 22.8741 25.0906 23.5032 24.4616C24.1322 23.8326 24.9853 23.4792 25.8749 23.4792C26.7645 23.4792 27.6176 23.8326 28.2467 24.4616C28.8757 25.0906 29.2291 25.9438 29.2291 26.8334Z" stroke="#FF7900" stroke-width="1.5" stroke-linecap="round" stroke-linejoin="round"/>
</svg>
